<?xml version="1.0" standalone="no"?>
<!DOCTYPE svg PUBLIC "-//W3C//DTD SVG 20010904//EN"
 "http://www.w3.org/TR/2001/REC-SVG-20010904/DTD/svg10.dtd">
<svg version="1.0" xmlns="http://www.w3.org/2000/svg"
 width="821.000000pt" height="304.000000pt" viewBox="0 0 821.000000 304.000000"
 preserveAspectRatio="xMidYMid meet">

<g transform="translate(0.000000,304.000000) scale(0.100000,-0.100000)"
fill="#000000" stroke="none">
<path d="M851 2486 l-23 -25 103 -121 c57 -67 104 -126 104 -133 0 -10 -244
-105 -273 -107 -7 0 -65 30 -128 66 -110 62 -117 64 -135 48 -17 -16 -16 -19
38 -88 31 -39 58 -73 59 -75 2 -2 76 -12 166 -23 l162 -19 94 31 c52 17 96 29
98 27 2 -2 -18 -18 -44 -35 -26 -17 -56 -41 -67 -53 l-20 -22 32 17 c18 9 38
16 45 15 7 0 3 -5 -9 -11 -13 -6 -23 -15 -23 -19 0 -15 21 -21 35 -9 8 6 18 9
23 6 6 -3 13 5 16 19 4 14 11 25 16 25 6 0 29 12 52 26 36 23 48 26 96 20 l54
-6 -4 30 c-4 29 -4 30 28 24 18 -3 40 -1 51 6 17 11 17 11 0 6 -11 -3 -23 -4
-27 -1 -15 9 1 35 20 35 10 0 26 3 36 7 16 6 16 7 -1 13 -13 5 55 31 205 79
124 40 241 81 261 92 44 22 71 61 67 97 -3 23 -9 28 -50 35 -43 8 -65 3 -275
-67 -125 -42 -236 -76 -245 -76 -9 0 -124 43 -254 95 -131 52 -243 95 -249 95
-6 0 -22 -11 -34 -24z m443 -428 c-4 -6 -10 -5 -15 3 -14 22 -10 33 6 19 8 -7
12 -17 9 -22z"/>
<path d="M6869 2383 l-127 -4 -7 -392 c-4 -216 -4 -412 0 -435 16 -96 78 -126
284 -138 l125 -7 -42 49 c-71 84 -71 88 -72 507 -1 380 -4 429 -24 425 -6 -1
-68 -4 -137 -5z"/>
<path d="M6030 2371 l-105 -6 -3 -29 c-11 -91 30 -166 112 -208 51 -26 229
-40 461 -36 l160 3 0 140 0 140 -260 1 c-143 0 -307 -2 -365 -5z"/>
<path d="M5690 2359 c-56 -23 -100 -86 -121 -176 -6 -26 -14 -123 -18 -215 -7
-160 -9 -170 -40 -232 -46 -94 -113 -179 -181 -233 -33 -25 -60 -50 -60 -54 0
-19 104 -41 176 -37 183 12 316 144 374 372 17 69 20 112 20 327 0 216 -2 248
-16 253 -24 9 -106 6 -134 -5z"/>
<path d="M5021 2352 c-11 -8 -12 -55 -8 -258 4 -209 8 -261 25 -322 28 -101
65 -173 121 -234 46 -50 48 -51 80 -40 74 26 191 137 191 181 0 9 -17 25 -37
36 -69 38 -93 122 -93 329 0 72 -5 148 -10 168 -14 48 -53 94 -101 119 -44 22
-147 35 -168 21z"/>
<path d="M4345 2340 c-80 -7 -121 -26 -159 -70 -44 -53 -47 -84 -44 -410 3
-352 5 -360 93 -415 41 -25 58 -30 114 -30 l66 0 3 105 c1 58 7 109 12 114 4
4 58 5 119 1 l111 -7 0 -109 0 -109 124 0 c69 0 136 4 150 10 l26 10 0 138 c0
190 -25 258 -113 305 -39 20 -58 22 -234 25 l-193 4 0 83 0 83 95 7 c132 10
143 6 147 -53 l3 -47 65 -7 c82 -9 143 -32 187 -71 l35 -31 -4 164 c-3 139 -7
172 -25 210 -43 96 -86 110 -327 109 -99 -1 -212 -5 -251 -9z"/>
<path d="M3458 2333 l-168 -3 0 -56 c0 -68 18 -112 60 -147 67 -57 90 -62 278
-62 l172 0 0 -77 0 -78 -105 0 -105 0 0 -141 0 -141 76 -109 75 -109 165 0
c90 0 164 3 164 8 -1 4 -34 52 -75 107 -41 55 -75 103 -75 107 0 4 27 23 60
43 89 54 90 57 90 311 0 206 -1 219 -21 248 -29 42 -73 76 -117 92 -37 13 -76
14 -474 7z"/>
<path d="M2953 2281 c47 -50 55 -72 59 -166 l3 -50 85 -3 c125 -4 130 -2 130
59 0 63 -36 134 -83 166 -37 25 -115 43 -190 43 l-50 0 46 -49z"/>
<path d="M2463 2261 c6 -71 37 -144 70 -166 14 -8 56 -23 95 -32 l71 -17 3
-240 c3 -225 4 -244 25 -281 44 -82 98 -115 189 -115 l54 0 0 386 c0 265 -4
392 -11 407 -6 12 -25 37 -42 55 -48 50 -104 62 -295 62 l-165 0 6 -59z"/>
<path d="M1496 2147 c3 -9 24 -12 69 -11 45 2 63 -1 59 -8 -4 -7 -2 -8 5 -4 6
4 27 -2 45 -14 27 -16 34 -17 32 -6 -3 24 -10 27 -78 42 -83 18 -139 18 -132
1z"/>
<path d="M5922 1854 l3 -289 27 -46 c32 -54 56 -72 128 -93 53 -16 174 -21
217 -10 22 6 21 8 -17 35 -69 50 -70 57 -70 344 l0 255 -53 0 c-72 0 -154 25
-200 62 l-38 30 3 -288z"/>
<path d="M1631 2101 c-11 -7 -9 -12 10 -22 21 -11 22 -10 12 3 -7 8 -10 18 -6
21 9 10 1 8 -16 -2z"/>
<path d="M3284 2052 c-4 -31 -8 -136 -8 -232 -1 -156 2 -183 22 -248 38 -121
100 -168 212 -160 l45 3 3 303 2 302 -48 0 c-67 0 -137 23 -183 59 l-38 31 -7
-58z"/>
<path d="M1820 2056 c0 -2 7 -7 16 -10 8 -3 12 -2 9 4 -6 10 -25 14 -25 6z"/>
<path d="M6246 1905 c-4 -64 -4 -120 -1 -125 4 -6 89 -10 212 -10 l206 0 -6
83 c-4 45 -7 101 -7 125 l0 42 -199 0 -198 0 -7 -115z"/>
<path d="M1910 1950 c0 -22 9 -39 34 -61 38 -33 38 -58 0 -53 -13 1 -22 -1
-19 -6 2 -4 18 -6 35 -4 28 3 30 2 30 -32 0 -19 -7 -42 -15 -50 -8 -9 -15 -27
-15 -42 0 -23 -1 -24 -12 -9 -7 9 -24 18 -38 19 -19 2 -25 -2 -25 -17 0 -12 9
-22 25 -26 14 -4 19 -7 13 -8 -17 -1 -16 -31 2 -55 25 -34 19 -84 -15 -118
-25 -25 -37 -29 -69 -26 -38 3 -38 3 -30 -26 5 -16 13 -34 19 -40 14 -14 12
-62 -3 -74 -10 -8 -16 -6 -25 9 -7 10 -8 19 -3 19 5 0 12 -6 14 -12 3 -7 6 -3
6 10 1 19 -2 21 -18 12 -11 -5 -27 -7 -35 -4 -11 4 -16 0 -17 -12 0 -11 -7 0
-16 24 -12 35 -18 41 -29 31 -11 -9 -14 -7 -14 10 0 27 -39 67 -63 63 -31 -6
-101 -91 -107 -130 -8 -57 -26 -48 -58 30 -19 45 -37 74 -48 77 -9 1 -28 16
-42 33 -20 24 -30 28 -53 23 -23 -5 -28 -3 -23 8 3 9 -3 16 -15 20 -23 6 -29
-8 -8 -16 7 -3 5 -6 -5 -6 -10 -1 -18 4 -18 10 0 6 -9 9 -19 6 -12 -3 -27 3
-37 14 -39 43 -61 6 -24 -41 17 -22 22 -23 40 -12 17 11 23 10 41 -7 21 -19
19 -61 -2 -61 -6 0 -29 -13 -52 -29 -76 -51 -77 -51 -126 49 -24 49 -50 91
-57 94 -15 6 -12 -4 19 -74 21 -48 74 -130 91 -142 5 -4 23 -4 38 -1 16 3 28
1 28 -5 0 -6 -25 -40 -56 -76 l-56 -65 7 -65 c7 -60 6 -64 -15 -71 -17 -5 -21
-13 -17 -31 2 -13 0 -24 -4 -24 -5 0 -9 -6 -9 -13 0 -8 -8 -21 -18 -31 -18
-15 -20 -15 -44 3 -34 27 -88 132 -88 170 0 18 -8 48 -19 69 -10 20 -19 50
-19 65 1 31 -35 64 -63 59 -11 -2 -19 8 -24 30 -5 20 -9 27 -12 17 -5 -21 20
-129 47 -203 57 -150 201 -305 355 -380 118 -58 199 -77 329 -77 125 0 212 19
321 72 101 48 204 127 184 141 -11 7 -11 11 -1 15 7 2 17 13 22 24 8 15 7 17
-5 13 -8 -3 -13 -9 -10 -13 5 -8 -124 -61 -148 -61 -14 0 -14 4 -1 44 11 31
26 50 55 69 22 14 45 25 52 23 6 -1 9 -1 5 1 -11 6 22 53 37 53 7 0 15 7 19
15 3 8 13 15 23 15 14 0 15 -2 4 -9 -11 -7 -9 -10 9 -16 17 -5 26 -2 34 11 9
16 12 12 16 -26 l5 -45 37 75 c51 103 69 176 75 301 7 136 -13 231 -72 354
-42 87 -102 172 -113 161 -3 -3 -14 8 -24 24 -17 29 -53 50 -84 50 -9 0 -14
-11 -14 -30z m74 -295 c3 -8 1 -15 -4 -15 -6 0 -10 7 -10 15 0 8 2 15 4 15 2
0 6 -7 10 -15z m76 -10 c0 -8 -7 -15 -15 -15 -13 0 -14 3 -3 15 16 18 18 18
18 0z m-71 -148 c-12 -44 -25 -54 -34 -26 -5 14 0 28 16 45 12 13 24 23 25 21
2 -2 -1 -20 -7 -40z m-664 -53 c-17 -39 -17 -39 -26 -14 -8 20 -6 27 13 41 30
23 32 19 13 -27z m295 -44 c0 -5 14 -32 30 -60 40 -67 39 -80 -5 -80 -26 0
-35 4 -36 18 -6 117 -6 141 2 137 5 -4 9 -10 9 -15z m345 0 c3 -5 1 -10 -4
-10 -6 0 -11 5 -11 10 0 6 2 10 4 10 3 0 8 -4 11 -10z m-586 -46 c-23 -35 -34
-43 -40 -33 -16 25 -9 38 29 58 20 11 38 20 40 21 2 0 -11 -21 -29 -46z m631
-40 c0 -12 -5 -26 -11 -29 -17 -11 -23 3 -9 21 12 13 12 19 0 37 -12 20 -12
21 3 8 10 -7 17 -24 17 -37z m-758 -45 c-10 -24 -22 -56 -26 -71 -5 -22 -12
-28 -33 -28 -25 0 -26 1 -19 47 3 26 12 53 19 60 15 14 70 44 74 39 2 -2 -5
-23 -15 -47z m538 -31 c0 -19 -17 -5 -30 25 -7 17 -15 37 -18 42 -2 6 7 -5 22
-24 14 -19 26 -39 26 -43z m-270 27 c8 -9 21 -13 35 -9 17 4 26 0 34 -14 6
-12 11 -23 11 -25 0 -2 -33 -7 -72 -11 -40 -4 -89 -9 -108 -13 l-35 -5 50 45
c55 50 66 55 85 32z m414 -17 c-9 -46 -31 -78 -53 -78 -33 0 -29 33 9 71 44
46 51 47 44 7z m-575 -14 c7 -20 9 -40 5 -44 -14 -13 -94 -17 -94 -5 0 13 58
85 69 85 4 0 13 -16 20 -36z m415 -23 c28 -29 37 -45 32 -58 -7 -16 -10 -15
-32 12 -32 38 -57 85 -46 85 4 0 25 -18 46 -39z m-58 -43 c-6 -29 -16 -53 -21
-54 -6 0 -17 -3 -25 -6 -8 -4 -25 -9 -38 -11 -22 -5 -23 -3 -20 51 l3 57 45 6
c25 3 50 7 56 7 9 2 9 -11 0 -50z m240 5 c-10 -26 -18 -8 -9 23 5 21 8 24 11
11 2 -10 1 -25 -2 -34z m176 3 c10 -18 9 -19 -4 -9 -11 10 -17 10 -26 1 -9 -9
-12 -8 -12 5 0 9 -6 17 -14 17 -8 0 -17 4 -20 8 -2 4 11 6 30 4 22 -3 39 -12
46 -26z m-911 -39 c-10 -9 -11 -8 -5 6 3 10 9 15 12 12 3 -3 0 -11 -7 -18z
m662 -14 c-7 -2 -19 -2 -25 0 -7 3 -2 5 12 5 14 0 19 -2 13 -5z m-697 -85 c-4
-13 -9 -36 -13 -51 -3 -15 -11 -26 -17 -24 -17 6 -15 58 3 78 22 24 34 23 27
-3z"/>
<path d="M916 1888 c-83 -95 -166 -291 -166 -392 0 -28 1 -28 14 -11 7 10 11
26 9 35 -5 19 33 70 53 70 8 0 14 -6 14 -13 0 -8 11 -20 25 -27 22 -12 27 -11
39 5 12 17 15 17 47 1 21 -10 35 -13 37 -6 2 5 10 10 17 10 7 0 15 10 19 23 9
33 7 49 -4 42 -6 -4 -17 -1 -25 5 -11 10 -15 10 -15 1 0 -7 -4 -9 -10 -6 -32
20 28 66 75 57 35 -6 51 17 24 36 -10 7 -19 21 -20 30 0 14 -3 13 -16 -6 -14
-20 -17 -21 -28 -6 -16 23 -35 9 -35 -26 0 -20 -6 -31 -20 -35 -13 -4 -20 -15
-20 -31 0 -35 -14 -23 -30 25 -7 23 -20 41 -28 41 -8 0 -12 -6 -9 -13 3 -8 -7
-18 -24 -24 -25 -10 -29 -9 -29 6 0 16 22 53 45 77 14 14 98 68 107 69 4 0 13
6 19 13 10 9 10 12 1 12 -7 0 -12 -5 -12 -12 0 -6 -3 -8 -7 -5 -3 4 4 18 17
32 18 19 26 22 32 13 6 -10 8 -10 8 -1 0 6 -4 15 -10 18 -16 10 -12 28 5 21 8
-3 15 -1 15 4 0 19 -32 10 -37 -10 -3 -11 -9 -20 -13 -20 -5 0 -6 8 -3 19 10
39 -17 29 -61 -21z m21 -10 c-17 -29 -33 -55 -34 -57 -2 -2 -5 -2 -8 0 -5 5
62 109 70 109 2 0 -10 -24 -28 -52z m-127 -241 c0 -7 -7 -22 -15 -33 -16 -20
-16 -18 0 31 5 18 15 20 15 2z"/>
<path d="M1840 1899 c0 -5 5 -7 10 -4 6 3 10 8 10 11 0 2 -4 4 -10 4 -5 0 -10
-5 -10 -11z"/>
<path d="M937 1766 c-4 -10 -1 -13 9 -9 7 3 14 9 14 14 0 14 -17 10 -23 -5z"/>
<path d="M1142 1759 c-21 -19 -21 -21 -6 -57 27 -62 30 -67 48 -70 21 -4 22
55 1 82 -8 11 -13 28 -10 37 9 26 -9 31 -33 8z"/>
<path d="M7126 1693 l-59 -4 6 -58 c5 -65 32 -123 74 -163 49 -47 91 -58 223
-58 l120 0 0 145 0 145 -152 -2 c-84 -1 -179 -3 -212 -5z"/>
<path d="M6250 1633 c1 -150 98 -220 295 -211 52 2 100 9 106 15 8 8 9 47 4
132 l-7 121 -199 0 -199 0 0 -57z"/>
<path d="M1305 1621 c-3 -5 -1 -12 5 -16 5 -3 10 1 10 9 0 18 -6 21 -15 7z"/>
<path d="M1246 1605 c-8 -22 3 -40 16 -27 7 7 7 16 1 27 -9 16 -10 16 -17 0z"/>
<path d="M1181 1584 c0 -11 3 -14 6 -6 3 7 2 16 -1 19 -3 4 -6 -2 -5 -13z"/>
<path d="M1390 1570 c0 -13 11 -13 30 0 12 8 11 10 -7 10 -13 0 -23 -4 -23
-10z"/>
<path d="M816 1556 c3 -8 13 -17 21 -20 25 -10 23 -3 -3 17 -18 13 -22 14 -18
3z"/>
<path d="M1365 1560 c3 -5 8 -10 11 -10 2 0 4 5 4 10 0 6 -5 10 -11 10 -5 0
-7 -4 -4 -10z"/>
<path d="M1355 1530 c3 -5 8 -10 11 -10 2 0 4 5 4 10 0 6 -5 10 -11 10 -5 0
-7 -4 -4 -10z"/>
<path d="M1486 1373 c-6 -14 -5 -15 5 -6 7 7 10 15 7 18 -3 3 -9 -2 -12 -12z"/>
<path d="M1140 1290 c0 -5 5 -10 10 -10 6 0 10 5 10 10 0 6 -4 10 -10 10 -5 0
-10 -4 -10 -10z"/>
<path d="M1910 981 c0 -6 5 -13 10 -16 6 -3 10 1 10 9 0 9 -4 16 -10 16 -5 0
-10 -4 -10 -9z"/>
</g>
</svg>
